<svg width="1157" height="635" viewBox="0 0 1157 635" fill="none" xmlns="http://www.w3.org/2000/svg">
<path fill-rule="evenodd" clip-rule="evenodd" d="M950.5 0H10C4.47715 0 0 4.47715 0 10V24V449.5V610V624C0 629.523 4.47714 634 9.99999 634H24H66H1132.5C1132.78 634 1133 634.224 1133 634.5V634.5C1133 634.776 1133.22 635 1133.5 635H1156C1156.55 635 1157 634.552 1157 634V634V610V44.5V24V3V3C1157 1.34315 1155.66 0 1154 0H950.5ZM66 600C66 605.523 70.4771 610 76 610H1123C1128.52 610 1133 605.523 1133 600V54.5C1133 48.9772 1128.52 44.5 1123 44.5L1040.4 44.5C1038.82 44.5 1037.27 44.1277 1035.86 43.4135L999.827 25.0865C998.423 24.3723 996.87 24 995.294 24H34C28.4772 24 24 28.4771 24 34L24 470.375C24 472.963 25.0032 475.45 26.7987 477.314L63.2013 515.095C64.9968 516.959 66 519.446 66 522.034L66 600Z" fill="#1F1F23"/>
</svg>
